<svg width="30" height="30" viewBox="0 0 30 30" fill="none" xmlns="http://www.w3.org/2000/svg">
<path d="M24.2189 13.8716H19.645V18.5204H24.2189V13.8716Z" fill="white"/>
<path d="M5.77352 6.92827C6.41086 6.92827 6.89824 6.4109 6.89824 5.77356V1.15471C6.89824 0.517371 6.41086 0 5.77352 0C5.13618 0 4.6488 0.517371 4.6488 1.15471V5.77356C4.6488 6.4109 5.13618 6.92827 5.77352 6.92827Z" fill="white"/>
<path d="M24.2189 20.77H19.645V25.4189H24.2189V20.77Z" fill="white"/>
<path d="M24.2564 6.92827C24.8938 6.92827 25.4187 6.4109 25.4187 5.77356V1.15471C25.4187 0.517371 24.8938 0 24.2564 0C23.6191 0 23.0942 0.517371 23.0942 1.15471V5.77356C23.0942 6.4109 23.6191 6.92827 24.2564 6.92827Z" fill="white"/>
<path d="M10.3475 20.77H5.77368V25.4189H10.3475V20.77Z" fill="white"/>
<path d="M10.3475 13.8716H5.77368V18.5204H10.3475V13.8716Z" fill="white"/>
<path d="M17.2456 13.8716H12.7467V18.5204H17.2456V13.8716Z" fill="white"/>
<path d="M30 7.04055C29.9325 5.69838 28.8453 4.64864 27.5106 4.64864H26.5434V5.77336C26.5434 5.81085 26.5434 5.85584 26.5434 5.89333C26.5134 6.53817 26.2059 7.11553 25.7486 7.52043C25.3437 7.87284 24.7963 8.08279 24.2189 8.08279C22.9443 8.08279 21.8945 7.04804 21.8945 5.77336V4.64864H21.932H8.08298H8.09797V5.77336C8.09797 7.04804 7.05574 8.08279 5.78105 8.08279C5.1812 8.08279 4.63384 7.85784 4.22894 7.48294C3.87653 7.16052 3.6141 6.72563 3.51662 6.23825C3.50162 6.16327 3.47913 6.08828 3.47163 6.00581C3.46413 5.93082 3.44914 5.84834 3.44914 5.77336V4.61865L3.46413 4.64864H2.50437C1.16221 4.64864 0.0749812 5.69838 0.00749813 7.04055C0.00749813 7.08554 0 7.11553 0 7.15302V16.1583V27.4654C0 28.8676 1.12472 29.9923 2.50437 29.9923H13.849H16.1585H27.5031C28.8828 29.9923 29.9925 28.8676 29.9925 27.4729V16.1583V7.16052C29.9925 7.11553 30 7.08554 30 7.04055ZM27.7431 27.4729C27.7431 27.5929 27.6081 27.7429 27.5031 27.7429H16.1585H13.849H2.50437C2.3994 27.7429 2.24944 27.5929 2.24944 27.4729V16.1583V11.5469H27.7431V27.4729Z" fill="white"/>
<path d="M17.2456 20.77H12.7467V25.4189H17.2456V20.77Z" fill="white"/>
</svg>
