<svg width="25" height="24" viewBox="0 0 25 24" fill="none" xmlns="http://www.w3.org/2000/svg">
<path d="M12.9513 1.6692L15.7032 7.43635C15.9219 7.89461 16.3575 8.21114 16.8609 8.27749L23.1962 9.1126C23.6132 9.16757 23.7801 9.6814 23.4751 9.97095L18.8406 14.3704C18.4724 14.7199 18.306 15.2321 18.3984 15.7314L19.5619 22.0146C19.6385 22.4282 19.2014 22.7457 18.8317 22.5451L13.2155 19.497C12.7693 19.2547 12.2307 19.2547 11.7845 19.497L6.16826 22.5451C5.79863 22.7457 5.36154 22.4282 5.43811 22.0146L6.60158 15.7314C6.69403 15.2321 6.52763 14.7199 6.15937 14.3704L1.52488 9.97095C1.21986 9.6814 1.38682 9.16757 1.80377 9.1126L8.13906 8.27749C8.64246 8.21114 9.07812 7.89461 9.2968 7.43635L12.0487 1.6692C12.2299 1.28964 12.7701 1.28963 12.9513 1.6692Z" stroke="#FFC947"/>
</svg>
