<svg width="16" height="16" viewBox="0 0 16 16" fill="none" xmlns="http://www.w3.org/2000/svg">
<path d="M5.59375 1.07294C5.42188 0.901062 5.20313 0.807312 4.94531 0.807312C4.42969 0.807312 4.01563 1.21356 4.01563 1.72919C4.01563 1.987 4.125 2.22137 4.30469 2.40106L9.77344 7.74481L4.30469 13.0729C4.125 13.2526 4.01562 13.4948 4.01562 13.7448C4.01562 14.2604 4.42969 14.6667 4.94531 14.6667C5.20312 14.6667 5.42188 14.5729 5.59375 14.4011L11.6719 8.46356C11.8906 8.26044 11.9922 8.01044 12 7.737C12 7.46356 11.8906 7.22919 11.6719 7.01825L5.59375 1.07294Z" fill="white"/>
</svg>
