<svg width="25" height="34" viewBox="0 0 25 34" fill="none" xmlns="http://www.w3.org/2000/svg">
<path d="M24.1478 17.6023C23.7435 17.198 23.2568 17 22.6875 17H6.87225V10.1278C6.87225 8.60975 7.4085 7.3145 8.481 6.242C9.5535 5.1695 10.8487 4.63325 12.3667 4.63325C13.8848 4.63325 15.18 5.1695 16.2525 6.242C17.325 7.3145 17.8613 8.60975 17.8613 10.1278C17.8613 10.499 17.9933 10.8207 18.2655 11.093C18.5378 11.3652 18.8595 11.4973 19.2308 11.4973H20.625C20.9963 11.4973 21.318 11.357 21.5903 11.093C21.8625 10.8207 21.9945 10.499 21.9945 10.1278C21.9945 7.4795 21.054 5.21075 19.173 3.32975C17.292 1.4405 15.0233 0.5 12.375 0.5C9.72675 0.5 7.458 1.4405 5.577 3.3215C3.68775 5.2025 2.74725 7.47125 2.74725 10.1195V16.9918H2.0625C1.49325 16.9918 1.0065 17.1898 0.60225 17.594C0.198 17.9983 0 18.485 0 19.0625V31.4375C0 32.0068 0.198 32.5018 0.60225 32.8978C1.0065 33.302 1.49325 33.5 2.0625 33.5H22.6875C23.2568 33.5 23.7518 33.302 24.1478 32.8978C24.552 32.4935 24.75 32.0068 24.75 31.4375V19.0625C24.75 18.485 24.552 17.9983 24.1478 17.6023Z" fill="white"/>
</svg>
