<svg width="36" height="36" viewBox="0 0 36 36" fill="none" xmlns="http://www.w3.org/2000/svg">
<g clip-path="url(#clip0_1181_57)">
<path fill-rule="evenodd" clip-rule="evenodd" d="M18 33C26.2843 33 33 26.2843 33 18C33 9.71573 26.2843 3 18 3C9.71573 3 3 9.71573 3 18C3 26.2843 9.71573 33 18 33ZM28 18C28 18 28 14.28 27.543 12.498C27.292 11.516 26.55 10.742 25.605 10.476C23.896 10 18 10 18 10C18 10 12.107 10 10.395 10.476C9.454 10.738 8.711 11.513 8.457 12.498C8 14.28 8 18 8 18C8 18 8 21.72 8.457 23.502C8.708 24.484 9.45 25.258 10.395 25.524C12.107 26 18 26 18 26C18 26 23.896 26 25.605 25.524C26.546 25.262 27.289 24.487 27.543 23.502C28 21.72 28 18 28 18ZM22 18L16 21.5V14.5L22 18Z" fill="white"/>
</g>
<defs>
<clipPath id="clip0_1181_57">
<rect width="36" height="36" fill="white"/>
</clipPath>
</defs>
</svg>
