<svg width="36" height="36" viewBox="0 0 36 36" fill="none" xmlns="http://www.w3.org/2000/svg">
<g clip-path="url(#clip0_1181_52)">
<path fill-rule="evenodd" clip-rule="evenodd" d="M18 33C26.2843 33 33 26.2843 33 18C33 9.71573 26.2843 3 18 3C9.71573 3 3 9.71573 3 18C3 26.2843 9.71573 33 18 33ZM15.8787 15.8787C16.4413 15.3161 17.2044 15 18 15C18.7956 15 19.5587 15.3161 20.1213 15.8787C20.6839 16.4413 21 17.2044 21 18C21 18.7956 20.6839 19.5587 20.1213 20.1213C19.5587 20.6839 18.7956 21 18 21C17.2044 21 16.4413 20.6839 15.8787 20.1213C15.3161 19.5587 15 18.7956 15 18C15 17.2044 15.3161 16.4413 15.8787 15.8787ZM21.5355 14.4645C20.5979 13.5268 19.3261 13 18 13C16.6739 13 15.4021 13.5268 14.4645 14.4645C13.5268 15.4021 13 16.6739 13 18C13 19.3261 13.5268 20.5979 14.4645 21.5355C15.4021 22.4732 16.6739 23 18 23C19.3261 23 20.5979 22.4732 21.5355 21.5355C22.4732 20.5979 23 19.3261 23 18C23 16.6739 22.4732 15.4021 21.5355 14.4645ZM24.1339 13.6339C24.3683 13.3995 24.5 13.0815 24.5 12.75C24.5 12.4185 24.3683 12.1005 24.1339 11.8661C23.8995 11.6317 23.5815 11.5 23.25 11.5C22.9185 11.5 22.6005 11.6317 22.3661 11.8661C22.1317 12.1005 22 12.4185 22 12.75C22 13.0815 22.1317 13.3995 22.3661 13.6339C22.6005 13.8683 22.9185 14 23.25 14C23.5815 14 23.8995 13.8683 24.1339 13.6339ZM13.971 10.058C15.122 10.007 15.526 10 18 10C20.539 10 20.925 10.006 22.029 10.058C22.811 10.094 23.337 10.199 23.827 10.389C24.2355 10.5392 24.6047 10.7798 24.907 11.093C25.2191 11.396 25.4593 11.765 25.61 12.173C25.8 12.661 25.905 13.189 25.942 13.971C25.993 15.122 26 15.526 26 18C26 20.539 25.994 20.925 25.942 22.029C25.906 22.809 25.8 23.336 25.61 23.829C25.444 24.259 25.243 24.572 24.906 24.909C24.574 25.241 24.259 25.442 23.826 25.611C23.338 25.8 22.811 25.905 22.029 25.942C20.878 25.993 20.474 26 18 26C15.461 26 15.075 25.994 13.971 25.942C13.191 25.906 12.665 25.8 12.171 25.609C11.741 25.443 11.428 25.242 11.091 24.906C10.759 24.574 10.559 24.261 10.389 23.826C10.2 23.339 10.095 22.812 10.058 22.029C10.007 20.878 10 20.474 10 18C10 15.461 10.006 15.075 10.058 13.971C10.094 13.188 10.199 12.663 10.389 12.173C10.5394 11.7646 10.78 11.3954 11.093 11.093C11.426 10.759 11.739 10.558 12.173 10.39C12.661 10.2 13.187 10.095 13.971 10.058ZM22.122 8.06C21.056 8.01 20.717 8 18 8C15.283 8 14.944 8.013 13.878 8.06C12.812 8.11 12.088 8.277 11.45 8.525C10.7824 8.77573 10.1777 9.16923 9.678 9.678C9.1688 10.1773 8.77524 10.7822 8.525 11.45C8.277 12.088 8.11 12.812 8.06 13.878C8.01 14.944 8 15.283 8 18C8 20.717 8.013 21.056 8.06 22.122C8.11 23.187 8.277 23.913 8.525 24.55C8.77593 25.2175 9.16941 25.8222 9.678 26.322C10.1775 26.8309 10.7823 27.2245 11.45 27.475C12.088 27.722 12.813 27.89 13.878 27.94C14.944 27.99 15.283 28 18 28C20.717 28 21.056 27.987 22.122 27.94C23.187 27.89 23.913 27.722 24.55 27.475C25.2173 27.2238 25.822 26.8303 26.322 26.322C26.8311 25.8226 27.2247 25.2178 27.475 24.55C27.722 23.912 27.89 23.187 27.94 22.122C27.99 21.056 28 20.717 28 18C28 15.283 27.987 14.944 27.94 13.878C27.89 12.813 27.722 12.087 27.475 11.45C27.224 10.7826 26.8305 10.1779 26.322 9.678C25.766 9.123 25.21 8.779 24.55 8.525C23.912 8.277 23.187 8.11 22.122 8.06Z" fill="white"/>
</g>
<defs>
<clipPath id="clip0_1181_52">
<rect width="36" height="36" fill="white"/>
</clipPath>
</defs>
</svg>
