<svg width="36" height="36" viewBox="0 0 36 36" fill="none" xmlns="http://www.w3.org/2000/svg">
<g clip-path="url(#clip0_1181_47)">
<path fill-rule="evenodd" clip-rule="evenodd" d="M18 33C26.2843 33 33 26.2843 33 18C33 9.71573 26.2843 3 18 3C9.71573 3 3 9.71573 3 18C3 26.2843 9.71573 33 18 33ZM25.7601 12.3139C26.589 12.2154 27.3986 11.9936 28.1621 11.6559L28.1631 11.6569C27.6017 12.4969 26.8949 13.2301 26.0761 13.8219C26.0841 13.9999 26.0891 14.1819 26.0891 14.3619C26.0891 19.8889 21.8821 26.2619 14.1891 26.2619C11.9161 26.264 9.69075 25.6114 7.77905 24.3819C8.87418 24.5142 9.98464 24.4293 11.0469 24.1321C12.1092 23.8349 13.1025 23.3313 13.9701 22.6499C13.0972 22.6337 12.2512 22.3449 11.5506 21.824C10.8501 21.3031 10.3299 20.5762 10.0631 19.7449C10.6904 19.8646 11.3367 19.84 11.9531 19.6729C11.0065 19.4814 10.1554 18.9684 9.5439 18.221C8.93242 17.4735 8.59825 16.5376 8.59805 15.5719V15.5199C9.17869 15.8427 9.82806 16.022 10.4921 16.0429C9.37005 15.2929 8.63205 14.0119 8.63205 12.5619C8.63101 11.8232 8.82634 11.0974 9.19805 10.4589C10.2482 11.751 11.5583 12.8077 13.0433 13.5606C14.5284 14.3134 16.1552 14.7456 17.8181 14.8289C17.6068 13.9317 17.6979 12.9898 18.0772 12.1497C18.4564 11.3096 19.1026 10.6183 19.9153 10.1834C20.728 9.74842 21.6616 9.59413 22.571 9.74451C23.4804 9.89489 24.3147 10.3415 24.9441 11.0149C25.8811 10.8299 26.7801 10.4879 27.6001 9.99993C27.2878 10.9689 26.6338 11.7914 25.7601 12.3139Z" fill="white"/>
</g>
<defs>
<clipPath id="clip0_1181_47">
<rect width="36" height="36" fill="white"/>
</clipPath>
</defs>
</svg>
