<svg width="25" height="24" viewBox="0 0 25 24" fill="none" xmlns="http://www.w3.org/2000/svg">
<path d="M11.5975 1.45387C11.9597 0.694744 13.0403 0.694745 13.4025 1.45387L16.1545 7.22102C16.3002 7.52653 16.5907 7.73754 16.9263 7.78178L23.2616 8.61689C24.0955 8.72682 24.4294 9.75449 23.8194 10.3336L19.1849 14.733C18.9394 14.966 18.8284 15.3075 18.8901 15.6403L20.0535 21.9236C20.2067 22.7507 19.3325 23.3858 18.5932 22.9846L12.977 19.9364C12.6795 19.7749 12.3205 19.7749 12.023 19.9364L6.40677 22.9846C5.66751 23.3858 4.79332 22.7507 4.94647 21.9236L6.10994 15.6403C6.17158 15.3075 6.06064 14.966 5.81513 14.733L1.18064 10.3336C0.570609 9.75449 0.904522 8.72682 1.73843 8.61689L8.07371 7.78178C8.40932 7.73754 8.69976 7.52653 8.84554 7.22102L11.5975 1.45387Z" fill="#FFC947"/>
</svg>
